<?xml version="1.0" encoding="UTF-8"?>
<svg id="_Слой_1" data-name="Слой 1" xmlns="http://www.w3.org/2000/svg" viewBox="0 0 407.3 494.03">
  <defs>
    <style>
      .cls-1 {
        fill: #555a66;
      }

      .cls-2 {
        fill: #fff;
      }

      .cls-3 {
        fill: #51717a;
      }

      .cls-4 {
        fill: #7cadc2;
      }

      .cls-5 {
        fill: #67909e;
      }

      .cls-6 {
        fill: #6794a3;
      }

      .cls-7 {
        stroke: #494d56;
        stroke-width: 10px;
      }

      .cls-7, .cls-8, .cls-9 {
        fill: none;
        stroke-miterlimit: 10;
      }

      .cls-7, .cls-9 {
        stroke-linecap: round;
      }

      .cls-8 {
        stroke: #567a84;
        stroke-width: 11px;
      }

      .cls-9 {
        stroke: #fff;
        stroke-width: 8px;
      }

      .cls-10 {
        fill: #6d7486;
      }
    </style>
  </defs>
  <g>
    <g>
      <path class="cls-1" d="M283.83,493.45H115.32c-20.65,0-38.04-15.42-40.52-35.92-12.23-101.39-24.46-202.77-36.69-304.16h325.53l-39.34,304.5c-2.63,20.35-19.96,35.58-40.47,35.58Z"/>
      <path class="cls-10" d="M294.38,494.03h-157.93c-19.35,0-35.66-15.42-37.97-35.92-11.46-101.39-22.92-202.77-34.38-304.16h305.09l-36.87,304.5c-2.46,20.35-18.7,35.58-37.93,35.58Z"/>
    </g>
    <line class="cls-7" x1="120.42" y1="219.61" x2="139.27" y2="442.5"/>
    <line class="cls-7" x1="284.45" y1="219.61" x2="265.6" y2="442.5"/>
    <line class="cls-7" x1="203.11" y1="220.12" x2="204.42" y2="442.24"/>
  </g>
  <g>
    <path class="cls-3" d="M43.77,94.56h302.21c24.16,0,43.77,19.61,43.77,43.77v15.98H0v-15.98C0,114.17,19.61,94.56,43.77,94.56Z"/>
    <path class="cls-5" d="M61.32,94.56h302.21c24.16,0,43.77,19.61,43.77,43.77v15.98H17.55v-15.98c0-24.16,19.61-43.77,43.77-43.77Z"/>
  </g>
  <g>
    <path class="cls-6" d="M112.97,52.71h167.15c21.94,0,39.74,17.81,39.74,39.74v2.47H73.22v-2.47c0-21.94,17.81-39.74,39.74-39.74Z"/>
    <path class="cls-4" d="M127.18,52.35h167.15c21.94,0,39.74,17.81,39.74,39.74v2.47H87.44v-2.47c0-21.94,17.81-39.74,39.74-39.74Z"/>
  </g>
  <path class="cls-8" d="M140.59,52.35v-19.68c0-15.01,12.58-27.17,28.09-27.17h69.95c15.51,0,28.09,12.17,28.09,27.17v19.68"/>
  <path class="cls-2" d="M79.71,32.81c1.93,0,1.93-3,0-3s-1.93,3,0,3h0Z"/>
  <g>
    <line class="cls-9" x1="70.22" y1="117.39" x2="154.67" y2="117.39"/>
    <ellipse class="cls-2" cx="56.68" cy="117.39" rx="5.31" ry="4"/>
  </g>
</svg>