<?xml version="1.0" encoding="UTF-8"?><!DOCTYPE svg PUBLIC "-//W3C//DTD SVG 1.1//EN" "http://www.w3.org/Graphics/SVG/1.1/DTD/svg11.dtd"><svg xmlns="http://www.w3.org/2000/svg" width="180" height="180"><path fill="#FFF" d="M89.553 132.112c-22.644 0-41-18.356-41-41s18.356-41 41-41 41 18.356 41 41-18.356 41-41 41z"/><path fill="none" stroke="#000" stroke-width="7" d="M89.553 132.112c-22.644 0-41-18.356-41-41s18.356-41 41-41 41 18.356 41 41-18.356 41-41 41z"/><path d="M84.563 32.42c2.136-.187 4.02 1.394 4.207 3.53l1.003 11.467c.187 2.136-1.393 4.02-3.53 4.207-2.137.187-4.021-1.394-4.208-3.53l-1.003-11.467c-.187-2.136 1.394-4.02 3.531-4.207z"/><path fill="none" stroke="#000" d="M84.563 32.42c2.136-.187 4.02 1.394 4.207 3.53l1.003 11.467c.187 2.136-1.393 4.02-3.53 4.207-2.137.187-4.021-1.394-4.208-3.53l-1.003-11.467c-.187-2.136 1.394-4.02 3.531-4.207z"/><path d="M117.487 39.308c1.944.906 2.785 3.217 1.878 5.161L114.501 54.9c-.907 1.944-3.217 2.785-5.161 1.879-1.944-.907-2.785-3.218-1.879-5.161l4.865-10.432c.906-1.944 3.217-2.785 5.161-1.878z"/><path fill="none" stroke="#000" d="M117.487 39.308c1.944.906 2.785 3.217 1.878 5.161L114.501 54.9c-.907 1.944-3.217 2.785-5.161 1.879-1.944-.907-2.785-3.218-1.879-5.161l4.865-10.432c.906-1.944 3.217-2.785 5.161-1.878z"/><path d="M141.182 60.641c1.231 1.757.804 4.179-.953 5.409l-9.429 6.602c-1.757 1.23-4.178.803-5.409-.954-1.23-1.757-.803-4.179.954-5.409l9.429-6.602c1.757-1.23 4.178-.803 5.408.954z"/><path fill="none" stroke="#000" d="M141.182 60.641c1.231 1.757.804 4.179-.953 5.409l-9.429 6.602c-1.757 1.23-4.178.803-5.409-.954-1.23-1.757-.803-4.179.954-5.409l9.429-6.602c1.757-1.23 4.178-.803 5.408.954z"/><path d="M149.015 94.883c-.187 2.137-2.07 3.717-4.207 3.531l-11.466-1.004c-2.137-.187-3.718-2.07-3.531-4.207.187-2.137 2.071-3.717 4.208-3.53l11.466 1.003c2.137.187 3.717 2.07 3.53 4.207z"/><path fill="none" stroke="#000" d="M149.015 94.883c-.187 2.137-2.07 3.717-4.207 3.531l-11.466-1.004c-2.137-.187-3.718-2.07-3.531-4.207.187-2.137 2.071-3.717 4.208-3.53l11.466 1.003c2.137.187 3.717 2.07 3.53 4.207z"/><path d="M122.518 113.515c1.23-1.757 3.652-2.184 5.409-.954l9.428 6.602c1.757 1.23 2.184 3.652.954 5.409-1.23 1.757-3.652 2.184-5.409.953l-9.429-6.602c-1.757-1.23-2.184-3.651-.953-5.408z"/><path fill="none" stroke="#000" d="M122.518 113.515c1.23-1.757 3.652-2.184 5.409-.954l9.428 6.602c1.757 1.23 2.184 3.652.954 5.409-1.23 1.757-3.652 2.184-5.409.953l-9.429-6.602c-1.757-1.23-2.184-3.651-.953-5.408z"/><path d="M105.117 126.986c2.015-.734 4.244.305 4.977 2.321l3.937 10.816c.734 2.015-.306 4.244-2.321 4.977-2.016.734-4.244-.305-4.978-2.321l-3.937-10.816c-.733-2.015.306-4.244 2.322-4.977z"/><path fill="none" stroke="#000" d="M105.117 126.986c2.015-.734 4.244.305 4.977 2.321l3.937 10.816c.734 2.015-.306 4.244-2.321 4.977-2.016.734-4.244-.305-4.978-2.321l-3.937-10.816c-.733-2.015.306-4.244 2.322-4.977z"/><path d="M82.087 129.551c2.112.372 3.523 2.387 3.15 4.499l-1.998 11.335c-.373 2.112-2.387 3.523-4.499 3.15-2.113-.372-3.523-2.386-3.151-4.499l1.999-11.335c.372-2.112 2.387-3.523 4.499-3.15z"/><path fill="none" stroke="#000" d="M82.087 129.551c2.112.372 3.523 2.387 3.15 4.499l-1.998 11.335c-.373 2.112-2.387 3.523-4.499 3.15-2.113-.372-3.523-2.386-3.151-4.499l1.999-11.335c.372-2.112 2.387-3.523 4.499-3.15z"/><path d="M62.229 120.228c1.516 1.516 1.516 3.975 0 5.492l-8.139 8.139c-1.517 1.516-3.976 1.516-5.492 0-1.517-1.517-1.517-3.976 0-5.493l8.138-8.138c1.517-1.517 3.976-1.517 5.493 0z"/><path fill="none" stroke="#000" d="M62.229 120.228c1.516 1.516 1.516 3.975 0 5.492l-8.139 8.139c-1.517 1.516-3.976 1.516-5.492 0-1.517-1.517-1.517-3.976 0-5.493l8.138-8.138c1.517-1.517 3.976-1.517 5.493 0z"/><path d="M50.723 99.548c.556 2.072-.674 4.202-2.746 4.757l-11.117 2.979c-2.072.555-4.202-.674-4.757-2.746-.555-2.072.674-4.202 2.746-4.757l11.118-2.979c2.072-.555 4.201.675 4.756 2.746z"/><path fill="none" stroke="#000" d="M50.723 99.548c.556 2.072-.674 4.202-2.746 4.757l-11.117 2.979c-2.072.555-4.202-.674-4.757-2.746-.555-2.072.674-4.202 2.746-4.757l11.118-2.979c2.072-.555 4.201.675 4.756 2.746z"/><path d="M51.471 78.34c-.734 2.015-2.963 3.054-4.978 2.321l-10.816-3.937c-2.015-.733-3.055-2.962-2.321-4.978.733-2.015 2.962-3.054 4.978-2.321l10.815 3.937c2.016.734 3.055 2.962 2.322 4.978z"/><path fill="none" stroke="#000" d="M51.471 78.34c-.734 2.015-2.963 3.054-4.978 2.321l-10.816-3.937c-2.015-.733-3.055-2.962-2.321-4.978.733-2.015 2.962-3.054 4.978-2.321l10.815 3.937c2.016.734 3.055 2.962 2.322 4.978z"/><path d="M52.218 44.659c1.643-1.378 4.092-1.164 5.471.479l7.399 8.817c1.378 1.643 1.164 4.093-.479 5.472-1.643 1.378-4.093 1.164-5.472-.479l-7.398-8.817c-1.379-1.643-1.164-4.093.479-5.472z"/><path fill="none" stroke="#000" d="M52.218 44.659c1.643-1.378 4.092-1.164 5.471.479l7.399 8.817c1.378 1.643 1.164 4.093-.479 5.472-1.643 1.378-4.093 1.164-5.472-.479l-7.398-8.817c-1.379-1.643-1.164-4.093.479-5.472z"/><path d="M86.911 69.8c-3.038 0-5.5-2.462-5.5-5.5s2.462-5.5 5.5-5.5c3.037 0 5.5 2.462 5.5 5.5s-2.463 5.5-5.5 5.5zm37.336 19.147c-3.037 0-5.5-2.462-5.5-5.5 0-3.037 2.463-5.5 5.5-5.5 3.038 0 5.5 2.463 5.5 5.5 0 3.038-2.462 5.5-5.5 5.5zm-52.168 38.779c-3.038 0-5.5-2.462-5.5-5.5 0-3.037 2.462-5.5 5.5-5.5s5.5 2.463 5.5 5.5c0 3.038-2.462 5.5-5.5 5.5zm-14.4-49.263c-3.038 0-5.5-2.462-5.5-5.5 0-3.037 2.462-5.5 5.5-5.5s5.5 2.463 5.5 5.5c0 3.038-2.462 5.5-5.5 5.5zm52.168 46.232c-3.037 0-5.5-2.463-5.5-5.5 0-3.038 2.463-5.5 5.5-5.5 3.038 0 5.5 2.462 5.5 5.5 0 3.037-2.462 5.5-5.5 5.5zm-5.81-43.327c-3.038 0-5.5-2.462-5.5-5.5 0-3.037 2.462-5.5 5.5-5.5 3.037 0 5.5 2.463 5.5 5.5 0 3.038-2.463 5.5-5.5 5.5zm-27.158 5.811c-3.038 0-5.5-2.462-5.5-5.5s2.462-5.5 5.5-5.5 5.5 2.462 5.5 5.5-2.462 5.5-5.5 5.5zm9.979 26.653c-3.038 0-5.5-2.463-5.5-5.5 0-3.038 2.462-5.5 5.5-5.5 3.037 0 5.5 2.462 5.5 5.5 0 3.037-2.463 5.5-5.5 5.5zm17.431-10.99c-3.037 0-5.5-2.462-5.5-5.5 0-3.037 2.463-5.5 5.5-5.5 3.038 0 5.5 2.463 5.5 5.5 0 3.038-2.462 5.5-5.5 5.5zm-40.673-1.516c-3.038 0-5.5-2.462-5.5-5.5 0-3.037 2.462-5.5 5.5-5.5 3.037 0 5.5 2.463 5.5 5.5 0 3.038-2.463 5.5-5.5 5.5zm41.431-38.273c-3.037 0-5.5-2.463-5.5-5.5 0-3.038 2.463-5.5 5.5-5.5 3.038 0 5.5 2.462 5.5 5.5 0 3.037-2.462 5.5-5.5 5.5z"/><path fill="none" stroke="#E80906" stroke-width="9" d="M90.5 165.5c-41.421 0-75-33.579-75-75s33.579-75 75-75 75 33.579 75 75-33.579 75-75 75z"/><path fill="none" stroke="#E80906" stroke-width="12" d="M36.062 36.714 144.5 143.5"/></svg>