<?xml version="1.0" encoding="UTF-8"?>
<svg id="SVGRoot" width="500" height="439.13" version="1.1" viewBox="0 0 500 439.13046" xmlns="http://www.w3.org/2000/svg" xmlns:cc="http://creativecommons.org/ns#" xmlns:dc="http://purl.org/dc/elements/1.1/" xmlns:rdf="http://www.w3.org/1999/02/22-rdf-syntax-ns#"><metadata><rdf:RDF><cc:Work rdf:about=""><dc:format>image/svg+xml</dc:format><dc:type rdf:resource="http://purl.org/dc/dcmitype/StillImage"/><dc:title/></cc:Work></rdf:RDF></metadata><g transform="translate(-175 -77.31)" fill="#008000" stroke-width=".5"><path d="m471.07 373.17c-6.742-2.739-13.804-2.4385-20.692-1.092-5.414 1.0645-10.692 3.012-15.869 4.9955-4.859 1.8655-9.4905 3.2755-14.214-0.8825-0.0635 5.287 5.014 8.6445 9.3635 7.316 10.774-3.294 21.575-6.515 32.43-9.4905 2.857-0.783 5.9785-0.592 8.981-0.8465z"/><path d="m401.75 400.7c2.8115-0.364 5.669-1.083 8.253-2.2205 4.313-1.9015 4.7865-4.868 1.8475-8.6715-0.992-1.274-1.8655-2.6295-3.667-5.1775-2.539 10.537-10.546 14.15-18.344 17.898-8.772 4.213-10.746 11.802-10.902 19.955 2.685-4.568 5.3235-9.5815 8.463-14.268 3.339-4.9955 8.5715-6.779 14.35-7.516z"/><path d="m322.82 347.33c4.2155 0 7.13-1.266 8.7405-3.7955 1.6065-2.5305 2.4115-6.264 2.4115-11.2v-36.457c0-4.874-0.797-8.5125-2.3895-10.918-1.5935-2.406-4.517-3.6095-8.7625-3.6095-4.25 0-7.169 1.2035-8.7625 3.6095-1.593 2.406-2.3895 6.044-2.3895 10.918v36.457c0 4.9365 0.801 8.6695 2.4115 11.2 1.6105 2.5295 4.521 3.7955 8.7405 3.7955z"/><path d="m579.67 281.35c-4.25 0-7.169 1.2035-8.7625 3.6095-1.593 2.406-2.3895 6.044-2.3895 10.918v36.457c0 4.9365 0.801 8.6695 2.4115 11.2 1.6105 2.5295 4.521 3.7955 8.7405 3.7955 4.2155 0 7.13-1.266 8.7405-3.7955 1.6065-2.5305 2.4115-6.264 2.4115-11.2v-36.457c0-4.874-0.797-8.5125-2.3895-10.918s-4.517-3.6095-8.7625-3.6095z"/><path d="m661.71 364.37 13.291-99.524h-0.937 5e-3l-47.14-18.307c-5.1155-5.018-5.139-12.575 0.868-19.353 2.529-2.8575 3.8895-5.641 4.263-8.176l0.1185-0.0445c-0.0195-0.055-0.0525-0.1045-0.0725-0.1595 0-9e-3 5e-3 -0.0185 5e-3 -0.0275l-0.016 6e-3c-1.314-3.477-5.1625-5.978-11.274-6.6345-12.176-1.3005-17.187-11.058-11.146-21.706 6.0185-10.658 1.0145-18.328-11.16-17.062-12.188 1.237-19.104-7.249-15.422-18.934 3.688-11.658-2.806-18.134-14.456-14.378-11.624 3.7735-20.211-3.094-19.026-15.27 1.1925-12.192-6.514-17.175-17.136-11.054-10.608 6.0975-20.4 1.133-21.786-11.032-1.3725-12.16-9.93-15.416-19.037-7.241-9.13 8.181-19.729 5.344-23.598-6.245-3.8745-11.597-12.934-13-20.122-3.1375-7.2245 9.898-18.198 9.357-24.414-1.204-6.175-10.521-15.361-10.018-20.346 1.142-4.989 11.152-15.838 12.932-24.083 3.894-8.2675-9.0325-17.104-6.6335-19.668 5.3325-2.5865 11.97-12.827 15.946-22.767 8.8355-9.953-7.1355-18.112-2.935-18.15 9.314-0.021 12.234-9.194 18.225-20.417 13.325-11.218-4.8825-18.338 0.922-15.814 12.886 2.5445 11.993-5.2085 19.756-17.194 17.326-11.996-2.458-17.728 4.6825-12.784 15.881 4.95 11.191-0.9945 20.408-13.224 20.504-12.244 0.1015-16.375 8.2785-9.215 18.188 7.1785 9.9075 3.28 20.181-8.653 22.828-10.314 2.263-13.445 9.1715-8.3165 16.279l-36.324 14.333h-1.5615l15.744 99.521 33.1-7e-3c-0.4905 0.7075-1.021 1.411-1.6365 2.1055-2.529 2.8575-3.8895 5.641-4.263 8.176l-0.1185 0.0445c0.0195 0.055 0.0525 0.1045 0.0725 0.159-1e-3 9e-3 -5e-3 0.019-6e-3 0.0275l0.0155-6e-3c1.3135 3.477 5.1625 5.978 11.274 6.6345 12.177 1.3005 17.187 11.058 11.146 21.706-6.018 10.658-1.0135 18.328 11.161 17.062 12.188-1.237 19.104 7.249 15.422 18.934-3.6875 11.658 2.8065 18.134 14.456 14.378 11.624-3.7735 20.212 3.094 19.026 15.27-1.193 12.192 6.514 17.175 17.136 11.054 10.608-6.0975 20.4-1.133 21.784 11.032 1.3725 12.16 9.931 15.416 19.037 7.241 9.131-8.181 19.73-5.344 23.598 6.245 3.8745 11.597 12.934 13 20.121 3.138 7.2245-9.898 18.198-9.357 24.414 1.204 6.175 10.521 15.362 10.018 20.346-1.142 4.988-11.152 15.837-12.932 24.083-3.894 8.267 9.0325 17.104 6.6335 19.668-5.3325 2.5865-11.97 12.827-15.946 22.766-8.8355 9.953 7.1355 18.112 2.935 18.15-9.314 0.021-12.233 9.194-18.225 20.417-13.325 11.218 4.8825 18.338-0.922 15.814-12.886-2.5445-11.992 5.2075-19.755 17.194-17.326 11.996 2.458 17.726-4.6825 12.784-15.88-4.95-11.191 0.9945-20.408 13.224-20.504 12.244-0.1015 16.375-8.2785 9.214-18.188-4.7655-6.5785-4.6235-13.305-0.5135-17.866zm-419.56 0.094 6.9355-2e-3c26.827 71.083 95.554 121.78 175.91 121.78 80.387 0 149.14-50.732 175.94-121.86l5.0735-1e-3c-27.474 73.808-98.64 126.54-181.9 126.56-83.266 0.018-154.45-52.683-181.96-126.48zm161.14-0.036c-1.15 3.941 0.5195 10.827 4.2 13.677 0.3905-4.6255 0.767-9.0425 1.1615-13.678l4.275-1e-3c-0.6445 0.594-1.033 1.5565-1.25 2.8875-2.5485 15.469 3.6125 28.763 17.88 34.468 17.698 7.07 19 22.594 14.987 35.388-0.401 1.292-0.837 2.575-1.2745 3.922 5.706-2.8025 11.01-12.884 11.284-20.646 0.482-13.349-6.9705-21.31-17.907-26.98-2.9575-1.5285-6.0145-2.839-9.063-4.1855-9.3905-4.1405-13.24-11.574-11.228-21.82 0.1865-0.9475 0.422-1.9045 0.6805-3.034l178.61-0.04c-26.558 68.334-93.03 116.9-170.64 116.9-77.58 0-144.03-48.53-170.61-116.82zm-151.84-8.0955c-0.9365-2.7915-1.8075-5.612-2.6105-8.4615v-75.513h8.9995l20.995 51.922v-51.922h11.996v83.975h-8.5295l-21.464-55.858v55.858h-9.3855zm48.226-26.992v-30.459c0-4.405 0.404-8.248 1.2185-11.528 0.809-3.281 2.105-6.1315 3.888-8.5525 1.7785-2.421 4.177-4.241 7.1905-5.4595 3.014-1.2175 6.631-1.827 10.85-1.827 8.185 0 14.088 2.3425 17.714 7.029 3.621 4.6855 5.4335 11.465 5.4335 20.338v30.459c0 4.3425-0.413 8.1775-1.2395 11.504-0.8315 3.3275-2.1315 6.2325-3.914 8.717-1.783 2.4835-4.177 4.3735-7.1955 5.6695-3.014 1.296-6.614 1.945-10.799 1.945-4.2195 0-7.8365-0.6415-10.85-1.9215-3.014-1.281-5.4125-3.155-7.1905-5.6235-1.783-2.4675-3.079-5.366-3.888-8.6935-0.8145-3.3255-1.2185-7.192-1.2185-11.597zm56.794 26.992v-83.975h8.9945l20.995 51.922v-51.922h11.996v83.975h-8.5295l-21.46-55.858v55.858zm50.188-36.426v-8.997h17.994v8.997zm59.678-28.172c-0.172-1.421-0.482-2.819-0.934-4.194-0.4565-1.3745-1.0725-2.491-1.8515-3.351-0.784-0.859-1.821-1.5455-3.117-2.0615-1.297-0.5155-2.834-0.774-4.6165-0.774-2.437 0-4.4905 0.4455-6.1615 1.336-1.671 0.89-2.9535 2.1875-3.8405 3.889-0.892 1.704-1.524 3.578-1.8995 5.6235-0.374 2.0465-0.564 4.4285-0.564 7.1465v26.992c0 2 0.0645 3.804 0.1895 5.4125 0.125 1.609 0.3355 3.25 0.633 4.9205 0.293 1.672 0.7315 3.1165 1.309 4.335 0.5765 1.2185 1.296 2.3195 2.1575 3.3035 0.8565 0.984 1.937 1.734 3.233 2.2485 1.296 0.5155 2.7855 0.774 4.4735 0.774 1.9985 0 3.733-0.3905 5.202-1.1725 1.468-0.7805 2.6305-1.788 3.492-3.0215 0.8605-1.2345 1.537-2.804 2.0365-4.7105 0.499-1.904 0.8395-3.7955 1.0075-5.6695 0.1725-1.874 0.259-4.014 0.259-6.42v-2.999h-11.996v-8.903h23.992v41.893h-8.9945l-3.001-8.997c-2.343 6.56-6.343 9.841-11.996 9.841-3.8405 0-7.1775-0.548-10.002-1.6405-2.829-1.0935-5.1325-2.577-6.9155-4.452-1.7785-1.874-3.1995-4.264-4.2625-7.169-1.0635-2.9055-1.796-5.967-2.2-9.1855-0.4095-3.2165-0.612-6.9195-0.612-11.106v-21.275c0-20.556 8.156-30.834 24.462-30.834 3.906 0 7.294 0.5855 10.17 1.757 2.872 1.171 5.201 2.8815 6.9795 5.1315 1.783 2.249 3.1265 4.8815 4.031 7.896 0.908 3.015 1.438 6.506 1.593 10.474 0.03 0.562 0.0475 1.422 0.0475 2.577h-11.996v-2.5305c-0.03-1.9685-0.1335-3.663-0.306-5.085zm55.696 64.598h-8.9945l-12-66.26v66.26h-11.996v-83.975h16.59l11.902 64.293 11.905-64.293h16.586v83.975h-11.996v-66.26zm68.44-1.101c-3.014 1.296-6.613 1.945-10.799 1.945-4.2195 0-7.8365-0.6415-10.85-1.9215-3.0145-1.281-5.4125-3.155-7.1905-5.6235-1.783-2.4675-3.079-5.366-3.888-8.6935-0.8135-3.326-1.2185-7.193-1.2185-11.598v-30.459c0-4.405 0.405-8.248 1.2185-11.528 0.809-3.281 2.105-6.1315 3.888-8.5525 1.7785-2.421 4.176-4.241 7.1905-5.4595 3.014-1.2175 6.631-1.827 10.85-1.827 8.186 0 14.088 2.3425 17.714 7.029 3.621 4.6855 5.4335 11.465 5.4335 20.338v30.459c0 4.3425-0.413 8.1775-1.2395 11.504-0.8315 3.3275-2.1315 6.2325-3.914 8.717-1.783 2.4835-4.177 4.374-7.1955 5.67zm-175.43-90.329c1.321-0.9535 2.656-1.8935 4.0075-2.8155 8.422-5.7505 11.936-13.588 10.834-23.62-0.8855-8.121-1.7535-16.25-2.763-24.364-0.275-2.195-1.0345-4.332-1.6855-6.9695 2.871-1.0685 5.2075 1.035 6.886 4.098 2.537 4.624 5.792 8.48 10.592 10.834 14.28 7.0025 28.586 7.1695 42.784-0.1835 6.8105-3.5305 13.998-7.1695 16.968-14.682 2.462-6.235 3.8735-13.004 4.833-19.672 0.559-3.881-0.7015-8.0295-1.2775-13.246-3.9225 3.0295-6.702 5.0495-9.34 7.2365-7.5365 6.235-15.6 7.328-24.405 2.863-3.213-1.6275-6.444-3.5055-9.8825-4.357-12.286-3.03-23.212-0.4755-32.526 8.5135-3.681 3.5475-6.911 7.078-7.8545 12.362-0.317 1.786-1.7855 3.3555-3.129 5.759-6.527-10.358-15.808-15.282-25.608-19.764 4.9495 0.943 9.8655 2.095 14.014 4.549 4.1725 2.4705 7.5785 6.235 11.602 9.6735 2.0535-6.644 0.442-12.411-2.604-18.062-8.3715-15.55-26.826-20.207-39.387-18.996-5.425 0.526-10.526 2.187-14.782 6.043-7.4365 6.7525-12.828 14.874-16.576 24.088-1.4015 3.447-2.1445 7.1615-3.363 11.368 2.1035-0.484 3.055-0.676 3.981-0.935 0.6595-0.192 1.3105-0.4505 1.9455-0.726 13.554-5.8675 26.8-5.5005 40.154 1.0765 9.106 4.4905 18.588 8.2295 29.23 6.427 0.8185-0.1335 2.354 1.185 2.821 2.1785 3.331 7.028 3.9065 14.364 2.045 21.91-2.868 11.63-9.31 21.039-17.096 29.418l-160.39 0.035c15.724-85.032 90.424-149.64 179.94-149.64 89.487 0 164.17 64.569 179.92 149.56zm9.9665-154.56c-92.256 0-169.2 66.815-184.98 154.6l-7.369 2e-3c15.272-91.849 95.259-162.11 191.37-162.13 96.12-0.024 176.14 70.2 191.46 162.04l-5.5085 1e-3c-15.816-87.741-92.739-154.52-184.97-154.52z"/></g></svg>
