<svg width="48" height="56" viewBox="0 0 48 56" fill="none" xmlns="http://www.w3.org/2000/svg">
<path d="M5.33333 8C2.38773 8 0 10.4 0 13.3333V50.6667C0 53.6 2.38773 56 5.33333 56H21.3333H26.6667H42.6667C45.6133 56 48 53.6 48 50.6667V13.3333C48 10.4 45.6133 8 42.6667 8H26.6667H21.3333H5.33333Z" fill="#BDC3C7"/>
<path d="M5.33333 5.33325C2.38773 5.33325 0 7.72099 0 10.6666V47.9999C0 50.9466 2.38773 53.3333 5.33333 53.3333H21.3333H26.6667H42.6667C45.6133 53.3333 48 50.9466 48 47.9999V10.6666C48 7.72099 45.6133 5.33325 42.6667 5.33325H26.6667H21.3333H5.33333Z" fill="#ECF0F1"/>
<path d="M5.33333 5.33325C2.38773 5.33325 0 7.73325 0 10.6666V18.6666H48V10.6666C48 7.73325 45.6133 5.33325 42.6667 5.33325H26.6667H21.3333H5.33333Z" fill="#E74C3C"/>
<path d="M12 12C12 12.5253 11.8965 13.0454 11.6955 13.5307C11.4945 14.016 11.1999 14.457 10.8284 14.8284C10.457 15.1999 10.016 15.4945 9.53073 15.6955C9.04543 15.8965 8.52529 16 8 16C7.47471 16 6.95457 15.8965 6.46927 15.6955C5.98396 15.4945 5.54301 15.1999 5.17157 14.8284C4.80014 14.457 4.5055 14.016 4.30448 13.5307C4.10346 13.0454 4 12.5253 4 12C4 11.4747 4.10346 10.9546 4.30448 10.4693C4.5055 9.98396 4.80014 9.54301 5.17157 9.17157C5.54301 8.80014 5.98396 8.5055 6.46927 8.30448C6.95457 8.10346 7.47471 8 8 8C8.52529 8 9.04543 8.10346 9.53073 8.30448C10.016 8.5055 10.457 8.80014 10.8284 9.17157C11.1999 9.54301 11.4945 9.98396 11.6955 10.4693C11.8965 10.9546 12 11.4747 12 12Z" fill="#C0392B"/>
<path d="M8.00016 0C6.52736 0 5.3335 1.19387 5.3335 2.66667V10.6667C5.3335 12.1395 6.52736 13.3333 8.00016 13.3333C9.47296 13.3333 10.6668 12.1395 10.6668 10.6667V2.66667C10.6668 1.19387 9.47296 0 8.00016 0Z" fill="#BDC3C7"/>
<path d="M44 12C44 12.5253 43.8965 13.0454 43.6955 13.5307C43.4945 14.016 43.1999 14.457 42.8284 14.8284C42.457 15.1999 42.016 15.4945 41.5307 15.6955C41.0454 15.8965 40.5253 16 40 16C39.4747 16 38.9546 15.8965 38.4693 15.6955C37.984 15.4945 37.543 15.1999 37.1716 14.8284C36.8001 14.457 36.5055 14.016 36.3045 13.5307C36.1035 13.0454 36 12.5253 36 12C36 11.4747 36.1035 10.9546 36.3045 10.4693C36.5055 9.98396 36.8001 9.54301 37.1716 9.17157C37.543 8.80014 37.984 8.5055 38.4693 8.30448C38.9546 8.10346 39.4747 8 40 8C40.5253 8 41.0454 8.10346 41.5307 8.30448C42.016 8.5055 42.457 8.80014 42.8284 9.17157C43.1999 9.54301 43.4945 9.98396 43.6955 10.4693C43.8965 10.9546 44 11.4747 44 12Z" fill="#C0392B"/>
<path d="M40.0002 0C38.5282 0 37.3335 1.06667 37.3335 2.66667V10.6667C37.3335 12 38.5282 13.3333 40.0002 13.3333C41.4722 13.3333 42.6668 12 42.6668 10.6667V2.66667C42.6668 1.06667 41.4722 0 40.0002 0Z" fill="#BDC3C7"/>
<path d="M5.3335 26.6667V32.0001H10.6668V26.6667H5.3335ZM13.3335 26.6667V32.0001H18.6668V26.6667H13.3335ZM21.3335 26.6667V32.0001H26.6668V26.6667H21.3335ZM29.3335 26.6667V32.0001H34.6668V26.6667H29.3335ZM37.3335 26.6667V32.0001H42.6668V26.6667H37.3335Z" fill="#BDC3C7"/>
<path d="M5.3335 34.6667V40.0001H10.6668V34.6667H5.3335ZM13.3335 34.6667V40.0001H18.6668V34.6667H13.3335ZM21.3335 34.6667V40.0001H26.6668V34.6667H21.3335ZM29.3335 34.6667V40.0001H34.6668V34.6667H29.3335ZM37.3335 34.6667V40.0001H42.6668V34.6667H37.3335Z" fill="#BDC3C7"/>
<path d="M5.3335 42.6667V48.0001H10.6668V42.6667H5.3335ZM13.3335 42.6667V48.0001H18.6668V42.6667H13.3335ZM21.3335 42.6667V48.0001H26.6668V42.6667H21.3335ZM29.3335 42.6667V48.0001H34.6668V42.6667H29.3335ZM37.3335 42.6667V48.0001H42.6668V42.6667H37.3335Z" fill="#BDC3C7"/>
<path d="M48 18.6667H0V21.3334H48V18.6667Z" fill="#C0392B"/>
</svg>
