<svg width="88" height="56" viewBox="0 0 88 56" fill="none" xmlns="http://www.w3.org/2000/svg">
<path d="M14.8148 52.7072L3.16022e-05 56L3.29283 41.1852C1.12432 37.129 -0.00689317 32.5994 3.16022e-05 28C3.16022e-05 12.5356 12.5356 0 28 0C43.4644 0 56 12.5356 56 28C56 43.4644 43.4644 56 28 56C23.4006 56.0069 18.8709 54.8757 14.8148 52.7072ZM14 28C14 31.713 15.475 35.274 18.1005 37.8995C20.726 40.525 24.287 42 28 42C31.713 42 35.274 40.525 37.8995 37.8995C40.525 35.274 42 31.713 42 28H36.4C36.4 30.2278 35.515 32.3644 33.9397 33.9397C32.3644 35.515 30.2278 36.4 28 36.4C25.7722 36.4 23.6356 35.515 22.0603 33.9397C20.485 32.3644 19.6 30.2278 19.6 28H14Z" fill="#191919"/>
<path fill-rule="evenodd" clip-rule="evenodd" d="M85 34.6667H83.5V31.619C83.5 27.3524 80.2 24 76 24C71.8 24 68.5 27.3524 68.5 31.619V34.6667H67C65.35 34.6667 64 36.0381 64 37.7143V52.9524C64 54.6286 65.35 56 67 56H85C86.65 56 88 54.6286 88 52.9524V37.7143C88 36.0381 86.65 34.6667 85 34.6667ZM76 48.381C74.35 48.381 73 47.0095 73 45.3333C73 43.6571 74.35 42.2857 76 42.2857C77.65 42.2857 79 43.6571 79 45.3333C79 47.0095 77.65 48.381 76 48.381ZM80.65 34.6667H71.35V31.619C71.35 29.0286 73.45 26.8952 76 26.8952C78.55 26.8952 80.65 29.0286 80.65 31.619V34.6667Z" fill="black"/>
</svg>
