<svg width="147" height="38" viewBox="0 0 147 38" fill="none" xmlns="http://www.w3.org/2000/svg">
<path d="M0.52 6.96H33.56V27.04H28.52V11.68H5.32V27.24H0.52V6.96ZM3 20.32H31.32V25.04H3V20.32ZM14.36 -9.53674e-07H19.44V37.56H14.36V-9.53674e-07ZM46.92 8.16H66.68V12.32H46.92V8.16ZM48 16.12H65.8V20.16H48V16.12ZM46.52 24.92H67.36V28.84H46.52V24.92ZM54.56 9.48H59V27H54.56V9.48ZM60.28 21.44L63.32 19.88C63.9067 20.44 64.52 21.0933 65.16 21.84C65.8 22.56 66.28 23.2 66.6 23.76L63.4 25.56C63.08 25 62.6133 24.3333 62 23.56C61.4133 22.7867 60.84 22.08 60.28 21.44ZM40.04 1.6H73.84V37.52H68.72V6H44.92V37.52H40.04V1.6ZM42.72 31.12H71.08V35.56H42.72V31.12ZM87.8959 34C87.8959 32.16 87.9893 30.5467 88.1759 29.16C88.3893 27.7733 88.7626 26.56 89.2959 25.52C89.8559 24.48 90.5893 23.5733 91.4959 22.8C92.4293 22 93.6159 21.2533 95.0559 20.56C95.9093 20.16 96.7359 19.76 97.5359 19.36C98.3359 18.96 99.0426 18.52 99.6559 18.04C100.296 17.5333 100.803 16.9733 101.176 16.36C101.576 15.7467 101.776 15.04 101.776 14.24C101.776 13.1467 101.456 12.3333 100.816 11.8C100.176 11.24 99.3493 10.96 98.3359 10.96C97.6959 10.96 97.0693 11.0533 96.4559 11.24C95.8426 11.4267 95.2559 11.68 94.6959 12C94.1626 12.2933 93.6559 12.6267 93.1759 13C92.6959 13.3733 92.2826 13.7467 91.9359 14.12L87.9359 9.88C88.3626 9.37333 88.9359 8.85333 89.6559 8.32C90.3759 7.78666 91.2159 7.29333 92.1759 6.84C93.1359 6.38667 94.2026 6.01333 95.3759 5.72C96.5759 5.42666 97.8559 5.28 99.2159 5.28C102.389 5.28 104.816 6.08 106.496 7.68C108.203 9.25333 109.056 11.4133 109.056 14.16C109.056 15.3333 108.896 16.36 108.576 17.24C108.256 18.0933 107.816 18.8667 107.256 19.56C106.696 20.2267 106.029 20.8267 105.256 21.36C104.483 21.8667 103.629 22.36 102.696 22.84C101.869 23.2667 101.096 23.68 100.376 24.08C99.6826 24.48 99.0693 24.8933 98.5359 25.32C98.0293 25.7467 97.6293 26.2 97.3359 26.68C97.0426 27.16 96.8959 27.68 96.8959 28.24H109.096V34H87.8959ZM113.262 34V27.48H118.502V34H113.262ZM134.284 34.4C132.204 34.4 130.377 33.9467 128.804 33.04C127.257 32.1333 125.951 30.9867 124.884 29.6C123.844 28.1867 123.057 26.64 122.524 24.96C121.991 23.2533 121.724 21.6 121.724 20C121.724 18.2933 122.017 16.5867 122.604 14.88C123.191 13.1467 124.017 11.6 125.084 10.24C126.177 8.85333 127.497 7.73333 129.044 6.88C130.591 6.02667 132.337 5.6 134.284 5.6C136.364 5.6 138.191 6.06667 139.764 7C141.337 7.90667 142.644 9.06667 143.684 10.48C144.751 11.8933 145.551 13.4533 146.084 15.16C146.617 16.84 146.884 18.4533 146.884 20C146.884 21.7333 146.591 23.4533 146.004 25.16C145.417 26.8667 144.577 28.4133 143.484 29.8C142.417 31.16 141.097 32.2667 139.524 33.12C137.977 33.9733 136.231 34.4 134.284 34.4ZM128.364 20C128.364 21.0133 128.484 22.0267 128.724 23.04C128.964 24.0533 129.324 24.9733 129.804 25.8C130.284 26.6 130.897 27.2667 131.644 27.8C132.391 28.3067 133.271 28.56 134.284 28.56C135.351 28.56 136.257 28.28 137.004 27.72C137.777 27.16 138.404 26.4667 138.884 25.64C139.364 24.7867 139.711 23.8667 139.924 22.88C140.137 21.8667 140.244 20.9067 140.244 20C140.244 19.0133 140.124 18.0133 139.884 17C139.644 15.96 139.271 15.04 138.764 14.24C138.284 13.4133 137.671 12.7467 136.924 12.24C136.177 11.7067 135.297 11.44 134.284 11.44C133.217 11.44 132.311 11.72 131.564 12.28C130.817 12.84 130.204 13.5467 129.724 14.4C129.244 15.2267 128.897 16.1467 128.684 17.16C128.471 18.1467 128.364 19.0933 128.364 20Z" fill="#FFFF00"/>
</svg>
