<svg width="56" height="56" viewBox="0 0 56 56" fill="none" xmlns="http://www.w3.org/2000/svg">
<path d="M5.31162 44.408L16.2596 33.46L24.1808 41.3784L36.9796 28.5824L42 33.6V19.6H28L33.0204 24.6204L24.1808 33.46L16.2624 25.5388L2.41362 39.3876C0.817423 35.8036 -0.00500556 31.9233 2.29202e-05 28C2.29202e-05 12.5356 12.5356 0 28 0C43.4644 0 56 12.5356 56 28C56 43.4644 43.4644 56 28 56C23.5704 56.0029 19.2035 54.9534 15.2589 52.9381C11.3143 50.9227 7.90498 47.9991 5.31162 44.408Z" fill="white"/>
</svg>
