<svg width="24" height="32" viewBox="0 0 24 32" fill="none" xmlns="http://www.w3.org/2000/svg">
<path fill-rule="evenodd" clip-rule="evenodd" d="M21 10.6667H19.5V7.61905C19.5 3.35238 16.2 0 12 0C7.8 0 4.5 3.35238 4.5 7.61905V10.6667H3C1.35 10.6667 0 12.0381 0 13.7143V28.9524C0 30.6286 1.35 32 3 32H21C22.65 32 24 30.6286 24 28.9524V13.7143C24 12.0381 22.65 10.6667 21 10.6667ZM12 24.381C10.35 24.381 9 23.0095 9 21.3333C9 19.6571 10.35 18.2857 12 18.2857C13.65 18.2857 15 19.6571 15 21.3333C15 23.0095 13.65 24.381 12 24.381ZM16.65 10.6667H7.35V7.61905C7.35 5.02857 9.45 2.89524 12 2.89524C14.55 2.89524 16.65 5.02857 16.65 7.61905V10.6667Z" fill="white"/>
</svg>
