<svg width="145" height="48" viewBox="0 0 145 48" fill="none" xmlns="http://www.w3.org/2000/svg">
<path fill-rule="evenodd" clip-rule="evenodd" d="M139.903 27.9563L130.559 0.095503H135.656L145 27.9563H139.903ZM119.517 27.8782L127.085 5.22506L129.634 12.8022L124.613 27.8782H119.517ZM91.6634 0H113.825V4.61019H91.6634V0ZM62.6889 23.268H83.0756V27.9563H62.6889V23.268ZM62.6889 0H83.0756V4.61019H62.6889V0ZM53.3727 19.7739C53.3727 22.4646 52.5326 24.502 50.8529 25.8858C49.1728 27.2697 46.7785 27.9745 43.6695 28C40.1275 27.9854 36.5854 27.9709 33.0434 27.9563C33.0434 26.4225 33.0434 24.8887 33.0434 23.3548H38.5732C40.2666 23.3593 41.8834 23.3636 43.5003 23.368C44.829 23.368 45.8665 23.0446 46.6124 22.3974C47.3582 21.7505 47.7313 20.8568 47.7313 19.7162C47.7313 17.1537 46.4338 15.8531 43.8388 15.8146C42.1091 15.8102 40.3794 15.8058 38.5732 15.8014H33.0434C33.0434 14.4412 33.0434 13.081 33.0434 11.6427H38.5732C40.0371 11.6427 41.4246 11.6427 42.812 11.6427C44.43 11.6427 45.5259 11.3186 46.2728 10.4173C46.7907 9.79218 47.0229 8.97919 47.0592 8.16985C47.093 7.5654 46.9773 6.61619 46.4242 5.90677C45.5789 4.82273 44.1414 4.68555 42.6165 4.68633C41.2943 4.68694 39.9719 4.68763 38.5732 4.61019H33.0434C33.0434 3.04741 33.0434 1.56278 33.0434 0C36.2344 0.00529607 39.4255 0.0105921 42.6165 0.0158882C45.9385 0.0158882 48.4583 0.66635 50.1759 1.96667C51.8933 3.26733 52.7521 5.1734 52.7521 7.6846C52.7521 9.05585 52.4072 10.2634 51.7179 11.3076C51.0283 12.352 50.0693 13.1175 48.8408 13.6043C50.2447 13.9632 51.3512 14.6872 52.1598 15.7761C52.9684 16.8654 53.3727 18.1979 53.3727 19.7739ZM10.9663 0.095503H16.063L25.4069 27.9563H20.3102L10.9663 0.095503ZM0 27.8782L7.56854 5.22506L10.1169 12.8022L5.02021 27.8782H0ZM81.0369 15.8014H62.6889V11.7208H81.0369V15.8014ZM105.076 27.8695H100.413V9.55898H105.076V27.8695Z" fill="#191919"/>
<path d="M0.632102 38.7273H2.52841L4.53125 43.6136H4.61648L6.61932 38.7273H8.51562V46H7.02415V41.2663H6.96378L5.08168 45.9645H4.06605L2.18395 41.2486H2.12358V46H0.632102V38.7273ZM16.2747 38.7273H17.8123V43.4503C17.8123 43.9806 17.6857 44.4446 17.4324 44.8423C17.1814 45.2401 16.8298 45.5502 16.3777 45.7727C15.9255 45.9929 15.3987 46.103 14.7974 46.103C14.1937 46.103 13.6658 45.9929 13.2136 45.7727C12.7614 45.5502 12.4099 45.2401 12.1589 44.8423C11.908 44.4446 11.7825 43.9806 11.7825 43.4503V38.7273H13.3201V43.3189C13.3201 43.5959 13.3805 43.8421 13.5012 44.0575C13.6243 44.273 13.7972 44.4422 14.0197 44.5653C14.2422 44.6884 14.5015 44.75 14.7974 44.75C15.0957 44.75 15.3549 44.6884 15.5751 44.5653C15.7976 44.4422 15.9693 44.273 16.09 44.0575C16.2131 43.8421 16.2747 43.5959 16.2747 43.3189V38.7273ZM21.0774 46V38.7273H22.6151V44.7322H25.733V46H21.0774ZM27.5661 39.995V38.7273H33.5391V39.995H31.3125V46H29.7926V39.995H27.5661ZM38.0604 38.7273V46H36.5227V38.7273H38.0604ZM47.6399 46V38.7273H52.4553V39.995H49.1776V41.728H52.1357V42.9957H49.1776V46H47.6399ZM55.8349 46H54.1871L56.6978 38.7273H58.6793L61.1864 46H59.5387L57.717 40.3892H57.6602L55.8349 46ZM55.7319 43.1413H59.6239V44.3416H55.7319V43.1413ZM64.0618 38.7273H65.9581L67.9609 43.6136H68.0462L70.049 38.7273H71.9453V46H70.4538V41.2663H70.3935L68.5114 45.9645H67.4957L65.6136 41.2486H65.5533V46H64.0618V38.7273ZM76.7498 38.7273V46H75.2122V38.7273H76.7498ZM80.0149 46V38.7273H81.5526V44.7322H84.6705V46H80.0149ZM86.3349 38.7273H88.0572L89.7156 41.8594H89.7866L91.445 38.7273H93.1673L90.5146 43.429V46H88.9876V43.429L86.3349 38.7273ZM106.005 42.3636C106.005 43.1567 105.854 43.8314 105.554 44.3878C105.256 44.9441 104.848 45.3691 104.332 45.6626C103.818 45.9538 103.241 46.0994 102.599 46.0994C101.953 46.0994 101.373 45.9527 100.859 45.6591C100.345 45.3655 99.9395 44.9406 99.6412 44.3842C99.3429 43.8279 99.1937 43.1544 99.1937 42.3636C99.1937 41.5705 99.3429 40.8958 99.6412 40.3395C99.9395 39.7831 100.345 39.3594 100.859 39.0682C101.373 38.7746 101.953 38.6278 102.599 38.6278C103.241 38.6278 103.818 38.7746 104.332 39.0682C104.848 39.3594 105.256 39.7831 105.554 40.3395C105.854 40.8958 106.005 41.5705 106.005 42.3636ZM104.446 42.3636C104.446 41.8499 104.369 41.4167 104.215 41.0639C104.064 40.7112 103.849 40.4437 103.572 40.2614C103.295 40.0791 102.971 39.9879 102.599 39.9879C102.228 39.9879 101.903 40.0791 101.626 40.2614C101.349 40.4437 101.134 40.7112 100.98 41.0639C100.828 41.4167 100.753 41.8499 100.753 42.3636C100.753 42.8774 100.828 43.3106 100.98 43.6634C101.134 44.0161 101.349 44.2836 101.626 44.4659C101.903 44.6482 102.228 44.7393 102.599 44.7393C102.971 44.7393 103.295 44.6482 103.572 44.4659C103.849 44.2836 104.064 44.0161 104.215 43.6634C104.369 43.3106 104.446 42.8774 104.446 42.3636ZM109.144 46V38.7273H113.959V39.995H110.681V41.728H113.64V42.9957H110.681V46H109.144ZM116.993 46V38.7273H121.809V39.995H118.531V41.728H121.489V42.9957H118.531V46H116.993ZM126.381 38.7273V46H124.843V38.7273H126.381ZM136.063 41.2734H134.507C134.479 41.0722 134.421 40.8935 134.333 40.7372C134.246 40.5786 134.133 40.4437 133.996 40.3324C133.859 40.2211 133.7 40.1359 133.52 40.0767C133.343 40.0175 133.15 39.9879 132.941 39.9879C132.565 39.9879 132.237 40.0814 131.958 40.2685C131.678 40.4531 131.462 40.723 131.308 41.0781C131.154 41.4309 131.077 41.8594 131.077 42.3636C131.077 42.8821 131.154 43.3177 131.308 43.6705C131.464 44.0232 131.682 44.2895 131.961 44.4695C132.24 44.6494 132.564 44.7393 132.931 44.7393C133.137 44.7393 133.327 44.7121 133.502 44.6577C133.68 44.6032 133.837 44.5239 133.975 44.4197C134.112 44.3132 134.226 44.1842 134.316 44.0327C134.408 43.8812 134.472 43.7083 134.507 43.5142L136.063 43.5213C136.022 43.8551 135.922 44.1771 135.761 44.4872C135.602 44.795 135.388 45.0708 135.118 45.3146C134.851 45.5561 134.531 45.7479 134.159 45.8899C133.79 46.0296 133.372 46.0994 132.906 46.0994C132.257 46.0994 131.677 45.9527 131.166 45.6591C130.657 45.3655 130.254 44.9406 129.958 44.3842C129.665 43.8279 129.518 43.1544 129.518 42.3636C129.518 41.5705 129.667 40.8958 129.965 40.3395C130.264 39.7831 130.669 39.3594 131.18 39.0682C131.691 38.7746 132.267 38.6278 132.906 38.6278C133.327 38.6278 133.718 38.687 134.078 38.8054C134.44 38.9238 134.761 39.0966 135.04 39.3239C135.319 39.5488 135.547 39.8246 135.722 40.1513C135.899 40.478 136.013 40.852 136.063 41.2734ZM139.165 46V38.7273H144.066V39.995H140.703V41.728H143.814V42.9957H140.703V44.7322H144.08V46H139.165Z" fill="black"/>
</svg>
