<svg width="56" height="46" viewBox="0 0 56 46" fill="none" xmlns="http://www.w3.org/2000/svg">
<path d="M48.3636 0H7.63636C5.61107 0 3.66874 0.807736 2.23664 2.24551C0.804543 3.68329 0 5.63334 0 7.66667V38.3333C0 40.3667 0.804543 42.3167 2.23664 43.7545C3.66874 45.1923 5.61107 46 7.63636 46H48.3636C50.3889 46 52.3313 45.1923 53.7634 43.7545C55.1955 42.3167 56 40.3667 56 38.3333V7.66667C56 5.63334 55.1955 3.68329 53.7634 2.24551C52.3313 0.807736 50.3889 0 48.3636 0ZM47.5287 32.2511C47.7872 32.4735 47.9985 32.7457 48.1503 33.0516C48.3021 33.3575 48.3913 33.6908 48.4125 34.0319C48.4337 34.373 48.3866 34.7149 48.2739 35.0374C48.1612 35.3598 47.9853 35.6563 47.7564 35.9093C47.5276 36.1623 47.2505 36.3667 46.9416 36.5103C46.6328 36.6539 46.2983 36.7338 45.9581 36.7454C45.6179 36.757 45.2789 36.6999 44.961 36.5776C44.6432 36.4553 44.353 36.2702 44.1076 36.0333L33.5618 26.4244C31.915 27.5275 29.9797 28.1162 28 28.1162C26.0203 28.1162 24.085 27.5275 22.4382 26.4244L11.8924 36.0333C11.3894 36.4662 10.7381 36.6852 10.0769 36.6437C9.41568 36.6022 8.79663 36.3036 8.35124 35.8112C7.90586 35.3188 7.66924 34.6714 7.69165 34.0067C7.71406 33.3419 7.99374 32.7121 8.47127 32.2511L18.5411 23.0741L8.46873 13.8767C8.22136 13.6508 8.02073 13.3782 7.87829 13.0745C7.73585 12.7708 7.65439 12.4419 7.63855 12.1066C7.60656 11.4294 7.84384 10.7672 8.29818 10.2657C8.75252 9.76411 9.38671 9.4643 10.0612 9.43219C10.7357 9.40008 11.3953 9.6383 11.8949 10.0944L24.5687 21.6686C25.5086 22.5278 26.7339 23.0041 28.0051 23.0041C29.2762 23.0041 30.5016 22.5278 31.4415 21.6686L44.1051 10.0944C44.6047 9.6383 45.2643 9.40008 45.9388 9.43219C46.6133 9.4643 47.2475 9.76411 47.7018 10.2657C48.1562 10.7672 48.3934 11.4294 48.3615 12.1066C48.3295 12.7838 48.0308 13.4205 47.5313 13.8767L37.4615 23.0767L47.5287 32.2511Z" fill="white"/>
</svg>
