<svg width="54" height="56" viewBox="0 0 54 56" fill="none" xmlns="http://www.w3.org/2000/svg">
<path d="M43.7646 47.134H6.63609C6.39973 47.134 6.16803 47.0685 5.96697 46.9449C5.7659 46.8212 5.60342 46.6443 5.49771 46.4339C5.39201 46.2235 5.34726 45.988 5.36849 45.7537C5.38971 45.5195 5.47608 45.2957 5.61789 45.1075L6.63609 43.7574V21.8027C6.63609 18.4336 7.46083 15.2571 8.92448 12.463L0 3.58439L3.60187 0L54 50.1561L50.3981 53.7379L43.7646 47.134ZM47.3639 36.4594L15.6955 4.94468C18.7621 2.90791 22.3269 1.73787 26.0095 1.55941C29.6921 1.38095 33.3542 2.20076 36.6053 3.93137C39.8563 5.66198 42.5742 8.23846 44.469 11.3859C46.3637 14.5333 47.3643 18.1337 47.3639 21.8027V36.4594ZM20.6363 49.6672H33.3637C33.3637 51.3467 32.6933 52.9575 31.4998 54.1452C30.3064 55.3328 28.6878 56 27 56C25.3122 56 23.6936 55.3328 22.5002 54.1452C21.3067 52.9575 20.6363 51.3467 20.6363 49.6672Z" fill="white"/>
</svg>
