<svg width="56" height="56" viewBox="0 0 56 56" fill="none" xmlns="http://www.w3.org/2000/svg">
<path d="M28 56C43.464 56 56 43.464 56 28C56 12.536 43.464 0 28 0C12.536 0 0 12.536 0 28C0 43.464 12.536 56 28 56Z" fill="url(#paint0_linear_193_2054)"/>
<path d="M41.6286 16.111L36.6302 41.3219C36.6302 41.3219 35.9302 43.0719 34.0052 42.2297L22.4661 33.3813L18.2661 31.3578L11.2005 28.9844C11.2005 28.9844 10.1177 28.6016 10.0083 27.7594C9.89895 26.9172 11.2333 26.4688 11.2333 26.4688L39.3208 15.4547C39.3208 15.4438 41.6286 14.4266 41.6286 16.111Z" fill="white"/>
<path d="M21.5697 41.0374C21.5697 41.0374 21.2307 41.0046 20.815 39.6812C20.3994 38.3577 18.2666 31.3577 18.2666 31.3577L35.2307 20.5843C35.2307 20.5843 36.215 19.9937 36.1713 20.5843C36.1713 20.5843 36.3463 20.6937 35.8213 21.1749C35.2963 21.6671 22.4994 33.1733 22.4994 33.1733" fill="#D2E4F0"/>
<path d="M26.8848 36.7719L22.3238 40.9391C22.3238 40.9391 21.9629 41.2125 21.5801 41.0375L22.4551 33.3047" fill="#B5CFE4"/>
<defs>
<linearGradient id="paint0_linear_193_2054" x1="28" y1="0" x2="28" y2="55.7957" gradientUnits="userSpaceOnUse">
<stop stop-color="#41BCE7"/>
<stop offset="1" stop-color="#22A6DC"/>
</linearGradient>
</defs>
</svg>
