<svg width="56" height="56" viewBox="0 0 56 56" fill="none" xmlns="http://www.w3.org/2000/svg">
<path d="M27.9999 0C12.5357 0 0 12.5693 0 28.0741C1.47486 65.3139 54.5302 65.3033 55.9997 28.0741C55.9997 12.5693 43.4634 0 27.9999 0Z" fill="#2D8CFF"/>
<path d="M44.6725 35.9913C44.6424 37.4685 43.4588 37.9672 42.3117 37.1496C40.1725 35.6524 38.048 34.1345 35.9153 32.629C35.9206 33.3257 35.9112 34.9668 35.9147 35.6807C35.9142 37.0046 35.2563 37.6489 33.9046 37.6495L22.3887 37.6507C20.4376 37.6513 18.487 37.6518 16.5359 37.6495C12.8476 37.6454 10.3689 35.2291 10.3677 31.6363V20.3155C10.3677 18.9727 11.0049 18.3467 12.3719 18.3467C17.0588 18.4357 25.2477 18.3567 29.8426 18.3484C33.0994 18.352 35.4555 20.3774 35.8493 23.3707C38.0044 21.8499 40.1507 20.3167 42.3117 18.8035C43.3085 18.0802 44.6206 18.3125 44.6725 19.9624C44.6867 25.1415 44.7037 30.8022 44.6725 35.9913Z" fill="#F1F1F1"/>
</svg>
